<svg
    width="60"
    height="60"
    viewBox="0 0 60 60"
    fill="none"
    xmlns="http://www.w3.org/2000/svg"
    >
    <path
        fill-rule="evenodd"
        clip-rule="evenodd"
        d="M38.2823 0.166672C37.5792 0.166672 36.9704 0.655133 36.818 1.34159L35.5888 6.87849C35.5142 7.2147 35.5575 7.56636 35.7115 7.8744L36.8333 10.118V30H35.3333C34.2288 30 33.3333 30.8954 33.3333 32V35.5726C33.3333 35.9603 33.446 36.3396 33.6577 36.6644L34.7451 38.3333L33.8072 39.4405C33.5013 39.8018 33.3333 40.2598 33.3333 40.7332V54C33.3333 57.3137 36.0196 60 39.3333 60C42.647 60 45.3333 57.3137 45.3333 54V40.7332C45.3333 40.2598 45.1654 39.8018 44.8594 39.4405L43.9216 38.3333L45.009 36.6644C45.2207 36.3396 45.3333 35.9603 45.3333 35.5726V32C45.3333 30.8954 44.4379 30 43.3333 30H41.8333V10.118L42.9552 7.8744C43.1092 7.56636 43.1525 7.2147 43.0779 6.87849L41.8487 1.34159C41.6963 0.655131 41.0875 0.166672 40.3843 0.166672H38.2823ZM40.8333 30V10V9.88197L40.8861 9.7764L42.0607 7.42718C42.1121 7.3245 42.1265 7.20729 42.1016 7.09521L40.8724 1.55831C40.8216 1.32949 40.6187 1.16667 40.3843 1.16667H38.2823C38.048 1.16667 37.845 1.32949 37.7942 1.55831L36.565 7.09521C36.5402 7.20728 36.5546 7.3245 36.6059 7.42718L37.7805 9.7764L37.8333 9.88197V10V30H40.8333ZM43.0837 37.7874L43.0538 37.8333H35.6129L35.5829 37.7874L34.4955 36.1185C34.3897 35.9561 34.3333 35.7664 34.3333 35.5726V32C34.3333 31.4477 34.781 31 35.3333 31H43.3333C43.8856 31 44.3333 31.4477 44.3333 32V35.5726C44.3333 35.7664 44.277 35.9561 44.1712 36.1185L43.0837 37.7874ZM43.0346 38.8333H35.6321L35.5081 38.9797L34.5703 40.0869C34.4173 40.2675 34.3333 40.4965 34.3333 40.7332V54C34.3333 56.7614 36.5719 59 39.3333 59C42.0948 59 44.3333 56.7614 44.3333 54V40.7332C44.3333 40.4965 44.2494 40.2675 44.0964 40.0869L43.1585 38.9797L43.0346 38.8333ZM36.8333 56.6667V42H37.8333V56.6667H36.8333ZM38.8333 42V56.6667H39.8333V42H38.8333ZM40.8333 56.6667V42H41.8333V56.6667H40.8333ZM29 8.99913C29 12.3565 26.9318 15.2308 24 16.4176V18.6667H23.8333V41.9997H24V44.2485C26.9318 45.4353 29 48.3096 29 51.667C29 54.0359 27.9714 56.1638 26.3333 57.63L26.3333 52.5144C26.3333 51.8685 26.0214 51.2623 25.4958 50.8869L21.8762 48.3014C21.136 47.7727 20.1322 47.8101 19.4333 48.3925L16.3863 50.9317C15.9303 51.3117 15.6667 51.8745 15.6667 52.4681L15.6667 57.63C14.0286 56.1638 13 54.0359 13 51.667C13 48.3096 15.0682 45.4353 18 44.2485V41.9997H18.1667V18.6667H18V16.4176C15.0682 15.2308 13 12.3565 13 8.99913C13 6.63021 14.0286 4.50232 15.6667 3.03616V8.15178C15.6667 8.79769 15.9786 9.40383 16.5042 9.77925L20.1238 12.3647C20.864 12.8934 21.8678 12.856 22.5667 12.2737L25.6137 9.73447C26.0697 9.35448 26.3333 8.79159 26.3333 8.19803V3.03616C27.9714 4.50232 29 6.63021 29 8.99913ZM24.8333 17.1443C27.8868 15.7047 30 12.5987 30 8.99913C30 6.20582 28.7275 3.70973 26.7305 2.05896C26.1442 1.57427 25.3333 2.04022 25.3333 2.80095V8.19803C25.3333 8.49481 25.2015 8.77625 24.9735 8.96625L21.9265 11.5055C21.5771 11.7966 21.0752 11.8153 20.7051 11.551L17.0854 8.96552C16.8226 8.77781 16.6667 8.47474 16.6667 8.15178V2.80095C16.6667 2.04022 15.8558 1.57427 15.2695 2.05896C13.2725 3.70973 12 6.20582 12 8.99913C12 12.5987 14.1132 15.7047 17.1667 17.1443V43.5218C14.1132 44.9614 12 48.0674 12 51.667C12 54.4603 13.2725 56.9564 15.2695 58.6072C15.8558 59.0919 16.6667 58.6259 16.6667 57.8652L16.6667 52.4681C16.6667 52.1713 16.7985 51.8899 17.0265 51.6999L20.0735 49.1607C20.4229 48.8695 20.9248 48.8508 21.2949 49.1152L24.9146 51.7006C25.1774 51.8883 25.3333 52.1914 25.3333 52.5144L25.3333 57.8652C25.3333 58.6259 26.1442 59.0919 26.7305 58.6072C28.7275 56.9564 30 54.4603 30 51.667C30 48.0674 27.8868 44.9614 24.8333 43.5218V17.1443ZM20.5 20.6664V39.9997H21.5V20.6664H20.5Z"
        fill="#DF2900"
    />
</svg>